<?xml version="1.0" encoding="UTF-8" standalone="no"?>
<svg
   xmlns:dc="http://purl.org/dc/elements/1.1/"
   xmlns:cc="http://creativecommons.org/ns#"
   xmlns:rdf="http://www.w3.org/1999/02/22-rdf-syntax-ns#"
   xmlns:svg="http://www.w3.org/2000/svg"
   xmlns="http://www.w3.org/2000/svg"
   version="1.1"
   id="svg3513"
   viewBox="0 0 49.635157 67.993368"
   height="19.18924mm"
   width="14.008144mm">
  <defs
     id="defs3515" />
  <metadata
     id="metadata3518">
    <rdf:RDF>
      <cc:Work
         rdf:about="">
        <dc:format>image/svg+xml</dc:format>
        <dc:type
           rdf:resource="http://purl.org/dc/dcmitype/StillImage" />
        <dc:title></dc:title>
      </cc:Work>
    </rdf:RDF>
  </metadata>
  <g
     transform="translate(-10.010573,-983.62973)"
     id="layer1">
    <g
       transform="matrix(1.6998342,0,0,1.6998342,176.07708,-743.6109)"
       id="text3336"
       style="font-style:normal;font-weight:normal;font-size:40px;line-height:125%;font-family:sans-serif;letter-spacing:0px;word-spacing:0px;fill:#ffffff;fill-opacity:1;stroke:none;stroke-width:1px;stroke-linecap:butt;stroke-linejoin:miter;stroke-opacity:1">
      <path
         id="path3344"
         style="font-style:normal;font-variant:normal;font-weight:500;font-stretch:normal;font-family:Hitchcock;-inkscape-font-specification:'Hitchcock Medium';fill:#ffffff"
         d="m -90.615709,1049.003 7.08,-0.32 q -1.32,-4.48 -1.6,-7.52 -0.28,-3.04 0.08,-4.76 0.4,-1.72 1.04,-2.6 0.68,-0.92 1.2,-1.16 0.52,-0.24 0.56,-0.24 1.44,-0.28 3.04,-1 1.6,-0.72 3.12,-1.68 1.52,-0.96 2.88,-2.04 1.4,-1.12 2.44,-2.12 1.04,-1 1.64,-1.8 0.64,-0.8 0.64,-1.16 0,-0.36 -0.08,-0.96 -0.04,-0.64 -0.4,-1.36 -0.36,-0.72 -1.16,-1.44 -0.8,-0.76 -2.28,-1.36 -1.44,-0.6 -3.72,-0.96 -2.28,-0.4 -5.56,-0.4 0,0 -1,0.04 -1,0.04 -2.56,0.28 -1.52,0.24 -3.4,0.76 -1.88,0.48 -3.68,1.44 -1.76,0.96 -3.24,2.44 -1.44,1.44 -2.12,3.56 l 5.32,0.2 q 1.04,-2 2.68,-3.08 1.68,-1.12 3.24,-1.6 1.6,-0.52 2.72,-0.6 1.16,-0.08 1.16,-0.08 0.96,0 2.32,0.08 1.4,0.04 2.68,0.36 1.32,0.28 2.2,0.96 0.92,0.68 0.92,1.92 0,1.88 -1.16,2.8 -1.12,0.88 -3.04,1.36 -1.88,0.44 -4.36,0.72 -2.48,0.24 -5.16,0.84 -0.04,0 -0.72,0.32 -0.64,0.28 -1.48,1.44 -0.84,1.16 -1.4,3.36 -0.52,2.16 -0.36,5.96 0.16,3.8 1.52,9.4 z m 0.28,7.12 0,-5.08 6.8,0 0.44,5.08 -7.24,0 z" />
    </g>
  </g>
</svg>
